<svg width="459" height="596" viewBox="0 0 459 596" fill="none" xmlns="http://www.w3.org/2000/svg">
<g clip-path="url(#clip0)">
<path d="M275.5 725C419.922 725 537 607.922 537 463.5C537 319.078 419.922 202 275.5 202C131.078 202 14 319.078 14 463.5C14 607.922 131.078 725 275.5 725Z" fill="#181F22"/>
<path d="M374 490C491.637 490 587 394.637 587 277C587 159.363 491.637 64 374 64C256.363 64 161 159.363 161 277C161 394.637 256.363 490 374 490Z" fill="#181F22" stroke="#030506" stroke-width="64"/>
<path d="M170 308C246.215 308 308 246.215 308 170C308 93.7847 246.215 32 170 32C93.7847 32 32 93.7847 32 170C32 246.215 93.7847 308 170 308Z" fill="#181F22" stroke="#030506" stroke-width="64"/>
</g>
<defs>
<clipPath id="clip0">
<rect width="459" height="596" fill="white"/>
</clipPath>
</defs>
</svg>
