<svg width="32" height="32" viewBox="0 0 32 32" fill="none" xmlns="http://www.w3.org/2000/svg">
<path fill-rule="evenodd" clip-rule="evenodd" d="M15.1815 1.61412C15.663 1.23963 16.3372 1.23963 16.8187 1.61412L28.8187 10.9474C29.1434 11.2001 29.3334 11.5885 29.3334 11.9999V26.6666C29.3334 27.7275 28.912 28.7449 28.1618 29.495C27.4117 30.2452 26.3943 30.6666 25.3334 30.6666H6.66675C5.60588 30.6666 4.58847 30.2452 3.83832 29.495C3.08818 28.7449 2.66675 27.7275 2.66675 26.6666V11.9999C2.66675 11.5885 2.85671 11.2001 3.18149 10.9474L15.1815 1.61412ZM5.33341 12.652V26.6666C5.33341 27.0202 5.47389 27.3593 5.72394 27.6094C5.97399 27.8594 6.31313 27.9999 6.66675 27.9999H25.3334C25.687 27.9999 26.0262 27.8594 26.2762 27.6094C26.5263 27.3593 26.6667 27.0202 26.6667 26.6666V12.652L16.0001 4.35573L5.33341 12.652Z" fill="#D7385E"/>
<path fill-rule="evenodd" clip-rule="evenodd" d="M10.6667 16.0001C10.6667 15.2637 11.2637 14.6667 12.0001 14.6667H20.0001C20.7365 14.6667 21.3334 15.2637 21.3334 16.0001V29.3334C21.3334 30.0698 20.7365 30.6667 20.0001 30.6667C19.2637 30.6667 18.6667 30.0698 18.6667 29.3334V17.3334H13.3334V29.3334C13.3334 30.0698 12.7365 30.6667 12.0001 30.6667C11.2637 30.6667 10.6667 30.0698 10.6667 29.3334V16.0001Z" fill="#D7385E"/>
</svg>
