<svg width="44" height="44" viewBox="0 0 44 44" fill="none" xmlns="http://www.w3.org/2000/svg">
<circle cx="22" cy="22" r="22" fill="white"/>
<path opacity="0.4" d="M38.3425 32.8828C38.3425 34.8633 31.4449 36.4688 22.9362 36.4688C14.4275 36.4688 7.52991 34.8633 7.52991 32.8828C7.52991 30.9024 14.4275 29.2969 22.9362 29.2969C31.4449 29.2969 38.3425 30.9024 38.3425 32.8828Z" fill="black"/>
<path d="M23.4606 13.706C23.4606 12.7141 24.1459 11.8425 25.1294 11.7136C25.5091 11.6638 25.8989 11.6279 26.2337 11.6279C26.4649 11.6279 26.7223 11.645 26.9846 11.672C28.2273 11.7999 29.172 12.7947 29.3675 14.0287C29.5657 15.2796 29.7718 16.8804 29.7718 18.1304C29.7718 19.6196 29.4793 21.6066 29.2561 22.9068C29.1151 23.7277 28.4863 24.3761 27.6629 24.5012C27.188 24.5733 26.6651 24.6329 26.2337 24.6329C25.8989 24.6329 25.5091 24.5971 25.1294 24.5473C24.1459 24.4184 23.4606 23.5467 23.4606 22.5549V13.706Z" fill="#CA0C0C"/>
<path fill-rule="evenodd" clip-rule="evenodd" d="M22.3981 22.5549V13.706C22.3981 12.2426 23.4198 10.8661 24.9913 10.6601C25.3915 10.6076 25.8328 10.5654 26.2337 10.5654C26.5133 10.5654 26.8093 10.5859 27.0933 10.6151C28.8691 10.7978 30.1548 12.2083 30.4169 13.8624C30.6165 15.122 30.8343 16.792 30.8343 18.1304C30.8343 19.7184 30.527 21.784 30.3033 23.0866C30.0891 24.3336 29.1229 25.3541 27.8224 25.5517C27.3307 25.6264 26.7456 25.6954 26.2337 25.6954C25.8328 25.6954 25.3915 25.6532 24.9913 25.6008C23.4198 25.3948 22.3981 24.0183 22.3981 22.5549ZM25.1294 11.7136C24.1459 11.8425 23.4606 12.7141 23.4606 13.706V22.5549C23.4606 23.5467 24.1459 24.4184 25.1294 24.5473C25.5091 24.5971 25.8989 24.6329 26.2337 24.6329C26.6651 24.6329 27.188 24.5733 27.6629 24.5012C28.4863 24.3761 29.1152 23.7277 29.2561 22.9068C29.4794 21.6066 29.7718 19.6196 29.7718 18.1304C29.7718 16.8804 29.5657 15.2796 29.3675 14.0287C29.172 12.7947 28.2273 11.7999 26.9846 11.672C26.7223 11.645 26.4649 11.6279 26.2337 11.6279C25.8989 11.6279 25.5091 11.6638 25.1294 11.7136Z" fill="black"/>
<path fill-rule="evenodd" clip-rule="evenodd" d="M23.4606 22.3568V22.555C23.4606 23.5468 24.1459 24.4185 25.1294 24.5474C25.5091 24.5971 25.8989 24.633 26.2337 24.633C26.6651 24.633 27.188 24.5734 27.6629 24.5013C28.4863 24.3762 29.1151 23.7277 29.2561 22.9068C29.4793 21.6067 29.7718 19.6196 29.7718 18.1305C29.7718 16.8806 29.5657 15.2797 29.3675 14.0288C29.2983 13.5919 29.1351 13.185 28.8981 12.8359C29.0751 14.0152 29.2405 15.4168 29.2405 16.5368C29.2405 18.0259 28.9481 20.013 28.7249 21.3131C28.5839 22.134 27.9551 22.7825 27.1316 22.9075C26.6567 22.9797 26.1339 23.0393 25.7024 23.0393C25.3676 23.0393 24.9778 23.0034 24.5981 22.9536C24.1419 22.8938 23.7498 22.6742 23.4606 22.3568Z" fill="#9D0404"/>
<path fill-rule="evenodd" clip-rule="evenodd" d="M27.2719 12.4858C27.516 12.323 27.8458 12.389 28.0085 12.6331L27.5665 12.9278C28.0085 12.6331 28.0086 12.6333 28.0088 12.6335L28.0091 12.6339L28.0097 12.6349L28.0112 12.6372L28.0153 12.6435C28.0185 12.6485 28.0227 12.6549 28.0276 12.6628C28.0376 12.6787 28.0509 12.7005 28.0672 12.7281C28.0997 12.7834 28.1438 12.8621 28.1957 12.964C28.2993 13.1679 28.4336 13.4643 28.5667 13.8503C28.8331 14.6229 29.0937 15.7522 29.0937 17.211C29.0937 17.5044 28.8559 17.7423 28.5625 17.7423C28.2692 17.7423 28.0313 17.5044 28.0313 17.211C28.0313 15.8808 27.794 14.8685 27.5623 14.1967C27.4464 13.8605 27.3318 13.6091 27.2486 13.4456C27.2071 13.3639 27.1734 13.3041 27.1515 13.2668C27.1405 13.2481 27.1324 13.2351 27.1278 13.2277L27.1234 13.2208M27.1233 13.2207C27.1233 13.2207 27.1233 13.2207 27.1233 13.2206C27.1231 13.2204 27.1231 13.2203 27.1233 13.2206L27.1237 13.2213L27.1241 13.2218L27.1243 13.2221" fill="#FB1414"/>
<path d="M11.5575 12.9238C11.5575 8.91002 14.6131 5.65625 18.3824 5.65625C22.1517 5.65625 25.2073 8.91002 25.2073 12.9238C25.2073 12.9238 25.7899 16.8734 25.9257 19.4263C26.1879 24.3568 25.2073 32.0488 25.2073 32.0488C25.2073 33.3162 24.2424 34.3438 23.0521 34.3438H21.6152C20.4249 34.3438 19.46 33.3162 19.46 32.0488V28.5162C19.109 28.5755 18.7491 28.6063 18.3824 28.6063C17.7608 28.6063 17.1587 28.5178 16.5864 28.352V31.2838C16.5864 32.5512 16.3399 33.5788 15.1496 33.5788H13.7128C12.0963 33.5788 11.6449 32.4416 11.5575 31.0925C11.1983 25.5463 10.1207 24.9725 10.1207 21.7213C10.1207 18.47 11.5575 12.9238 11.5575 12.9238Z" fill="#FB1414"/>
<path fill-rule="evenodd" clip-rule="evenodd" d="M25.2073 32.0488C25.2073 33.3162 24.2424 34.3438 23.0521 34.3438H21.6153C20.425 34.3438 19.46 33.3162 19.46 32.0488V28.5162C19.1139 28.5746 18.759 28.6054 18.3975 28.6062C18.3925 28.6062 18.3875 28.6063 18.3824 28.6063C18.1346 28.6063 17.8899 28.5922 17.6489 28.5648C17.2855 28.5234 16.9305 28.4517 16.5864 28.352V31.2838C16.5864 32.5512 16.3399 33.5788 15.1496 33.5788H13.7128C12.0964 33.5788 11.6449 32.4416 11.5575 31.0925C11.3672 28.1532 10.975 26.6105 10.6485 25.3257C10.3588 24.1861 10.1207 23.2495 10.1207 21.7213C10.1207 18.47 11.5575 12.9238 11.5575 12.9238C11.5575 8.91002 14.6132 5.65625 18.3824 5.65625C22.1517 5.65625 25.2073 8.91002 25.2073 12.9238C25.2073 12.9238 25.7899 16.8734 25.9257 19.4263C26.188 24.3568 25.2073 32.0488 25.2073 32.0488ZM26.2695 12.8443C26.2292 8.34288 22.7746 4.59375 18.3824 4.59375C14.009 4.59375 10.5652 8.31088 10.4961 12.7866C10.4872 12.8217 10.4767 12.8637 10.4647 12.912C10.4245 13.0737 10.3674 13.3072 10.2989 13.5971C10.1622 14.1765 9.97986 14.9835 9.79734 15.8946C9.43707 17.6928 9.05823 19.9817 9.05823 21.7213C9.05823 23.3845 9.32463 24.4316 9.61643 25.5786C9.63565 25.6541 9.65498 25.7301 9.67435 25.8067C9.97782 27.007 10.323 28.4705 10.4973 31.1612C10.5451 31.899 10.6973 32.7643 11.1993 33.462C11.7547 34.2341 12.6174 34.6413 13.7128 34.6413H15.1496C15.6029 34.6413 16.0415 34.542 16.4293 34.3056C16.8182 34.0685 17.0848 33.7369 17.2622 33.3868C17.5934 32.733 17.6489 31.9412 17.6489 31.2838V29.6331C17.8906 29.6567 18.1353 29.6688 18.3824 29.6688C18.3875 29.6688 18.3925 29.6687 18.3975 29.6687V32.0488C18.3975 33.8392 19.7762 35.4063 21.6153 35.4063H23.0521C24.8663 35.4063 26.2326 33.8811 26.2691 32.121L26.2727 32.0916C26.28 32.0327 26.2906 31.9462 26.3039 31.8348C26.3306 31.6118 26.3682 31.2888 26.4126 30.8861C26.5012 30.0809 26.6165 28.9559 26.7237 27.675C26.9368 25.1269 27.1219 21.9112 26.9867 19.3698C26.9167 18.0541 26.7332 16.3976 26.57 15.0865C26.4879 14.4274 26.4102 13.849 26.3529 13.4352C26.3243 13.2282 26.3008 13.0622 26.2844 12.9477C26.2784 12.9063 26.2734 12.8717 26.2695 12.8443Z" fill="black"/>
<path fill-rule="evenodd" clip-rule="evenodd" d="M11.5744 12.4088C11.5633 12.5789 11.5576 12.7506 11.5576 12.9237C11.5576 12.9237 11.1384 14.5416 10.7529 16.542C11.224 17.3379 12.0699 17.9057 13.0912 17.9601L18.3074 18.2378C19.8849 18.3218 21.317 17.3214 21.7811 15.8115C22.439 13.6707 20.9099 11.4816 18.6735 11.3626L14.8593 11.1595C13.6047 11.0927 12.423 11.5698 11.5744 12.4088Z" fill="#C30A0A"/>
<path fill-rule="evenodd" clip-rule="evenodd" d="M11.8159 32.388C12.1017 33.0967 12.6603 33.5788 13.7127 33.5788H15.1495C16.3398 33.5788 16.5863 32.5513 16.5863 31.2838V28.352C17.1586 28.5178 17.7608 28.6063 18.3824 28.6063C18.3874 28.6063 18.3924 28.6063 18.3975 28.6063V27.4537C18.0465 27.513 17.6865 27.5438 17.3199 27.5438C16.6983 27.5438 16.0961 27.4553 15.5238 27.2895V30.2213C15.5238 31.4888 15.2773 32.5163 14.087 32.5163H12.6502C12.3279 32.5163 12.0519 32.4711 11.8159 32.388ZM19.6952 33.0925C20.052 33.8353 20.7779 34.3438 21.6152 34.3438H23.052C24.2423 34.3438 25.2073 33.3163 25.2073 32.0488C25.2073 32.0488 26.1879 24.3568 25.9257 19.4263C25.7899 16.8735 25.2073 12.9238 25.2073 12.9238C25.2073 10.5549 24.1429 8.45079 22.4957 7.12402C23.5235 8.39619 24.1448 10.0515 24.1448 11.8613C24.1448 11.8613 24.7274 15.811 24.8632 18.3638C25.1254 23.2943 24.1448 30.9863 24.1448 30.9863C24.1448 32.2538 23.1798 33.2813 21.9895 33.2813H20.5527C20.248 33.2813 19.958 33.2139 19.6952 33.0925Z" fill="#C30A0A"/>
<path fill-rule="evenodd" clip-rule="evenodd" d="M18.5416 6.60755C18.6031 6.89444 18.4204 7.17684 18.1335 7.23832C16.1016 7.67371 14.7761 9.04192 13.9357 10.6371C13.0909 12.2406 12.7639 14.0285 12.7243 15.1708C12.7233 15.2006 12.7197 15.2302 12.7138 15.2593C12.5877 15.8734 12.3982 16.8638 12.2404 17.8342C12.0804 18.8189 11.9609 19.7376 11.9609 20.2325C11.9609 21.5796 12.0621 23.249 12.6822 24.7062C12.7971 24.9761 12.6714 25.2881 12.4014 25.403C12.1314 25.5179 11.8194 25.3922 11.7045 25.1222C10.9965 23.4582 10.8984 21.6081 10.8984 20.2325C10.8984 19.6384 11.0335 18.6369 11.1917 17.6637C11.3485 16.6986 11.5358 15.7168 11.6641 15.0888C11.7149 13.8176 12.0736 11.892 12.9956 10.1418C13.9331 8.36247 15.4802 6.72026 17.9109 6.1994C18.1978 6.13793 18.4802 6.32066 18.5416 6.60755Z" fill="#FF5151"/>
<path d="M9.41583 12.6261C10.0011 10.7217 11.8073 9.46008 13.7967 9.56598L17.6108 9.76904C19.8473 9.88809 21.3764 12.0772 20.7184 14.218V14.218C20.2544 15.728 18.8222 16.7283 17.2448 16.6444L12.0287 16.3667C10.1483 16.2666 8.86266 14.426 9.41583 12.6261V12.6261Z" fill="#54B0D7"/>
<path fill-rule="evenodd" clip-rule="evenodd" d="M13.8532 8.50482L17.6674 8.70787C20.5941 8.86368 22.5951 11.7284 21.7342 14.53C21.1269 16.506 19.2527 17.8151 17.1884 17.7052L11.9722 17.4275C9.4016 17.2907 7.64401 14.7745 8.40024 12.3138C9.12871 9.9434 11.3769 8.37299 13.8532 8.50482ZM13.7967 9.56583C11.8073 9.45992 10.0011 10.7216 9.41587 12.6259C8.8627 14.4258 10.1483 16.2664 12.0287 16.3665L17.2449 16.6442C18.8223 16.7282 20.2545 15.7278 20.7185 14.2178C21.3764 12.077 19.8473 9.88794 17.6109 9.76888L13.7967 9.56583Z" fill="black"/>
<path fill-rule="evenodd" clip-rule="evenodd" d="M9.67262 14.9177C10.14 15.7296 10.9943 16.3112 12.0286 16.3663L17.2448 16.644C18.8222 16.7279 20.2544 15.7276 20.7184 14.2176C21.1595 12.7825 20.6177 11.3257 19.5389 10.4854C20.0406 11.2924 20.2135 12.3077 19.9048 13.3125C19.4407 14.8224 18.0086 15.8228 16.4311 15.7388L11.215 15.4611C10.6311 15.43 10.1046 15.2311 9.67262 14.9177Z" fill="#4088A3"/>
<path d="M10.3341 11.6494C10.6193 10.7954 11.8677 10.0114 12.9396 10.0428C14.0115 10.0742 13.9948 9.94397 16.0077 10.1326C18.0206 10.3213 18.6078 11.3932 18.2034 12.6041C17.9182 13.4581 16.9841 13.9055 15.9122 13.8741C14.8403 13.8427 14.003 14.1065 12.5089 14.1065C11.0147 14.1065 9.92972 12.8603 10.3341 11.6494Z" fill="#71D8F9"/>
<path fill-rule="evenodd" clip-rule="evenodd" d="M11.6997 11.637L11.5009 11.1443C11.2288 11.2541 11.0972 11.5637 11.207 11.8358C11.3167 12.1078 11.6261 12.2394 11.8981 12.1298L11.8975 12.1301C11.897 12.1302 11.8973 12.1301 11.8975 12.1301L11.9038 12.1276C11.9105 12.1251 11.922 12.1208 11.9381 12.1151C11.9702 12.1036 12.0207 12.0864 12.0876 12.0661C12.2215 12.0253 12.4205 11.972 12.6703 11.9259C13.1713 11.8335 13.8674 11.772 14.6496 11.8925C14.9396 11.9372 15.2109 11.7383 15.2556 11.4483C15.3002 11.1583 15.1014 10.8871 14.8114 10.8424C13.8839 10.6995 13.0646 10.7728 12.4776 10.881C12.1834 10.9353 11.9452 10.9987 11.7781 11.0496C11.6944 11.0751 11.6282 11.0975 11.5815 11.1142C11.5581 11.1225 11.5396 11.1294 11.5261 11.1345L11.5096 11.1409L11.5043 11.143L11.5024 11.1438L11.5016 11.1441C11.5014 11.1441 11.5009 11.1443 11.6997 11.637Z" fill="#EDFEFF"/>
<path fill-rule="evenodd" clip-rule="evenodd" d="M14.158 27.9986C14.2825 27.7329 14.5988 27.6185 14.8645 27.743C15.4952 28.0386 16.2983 28.1904 17.0868 28.2557C17.8682 28.3204 18.5968 28.2972 19.0561 28.2655C19.3488 28.2454 19.6025 28.4663 19.6226 28.759C19.6428 29.0517 19.4219 29.3053 19.1292 29.3255C18.6344 29.3596 17.8494 29.3849 16.9991 29.3146C16.1559 29.2448 15.2091 29.078 14.4135 28.7051C14.1479 28.5805 14.0334 28.2642 14.158 27.9986Z" fill="black"/>
<path fill-rule="evenodd" clip-rule="evenodd" d="M20.3007 26.8758C20.5926 26.9057 20.805 27.1665 20.7752 27.4584C20.7266 27.9338 20.6679 28.7081 20.6508 29.4748C20.6333 30.262 20.6622 30.9709 20.7612 31.356C20.8343 31.6402 20.6631 31.9298 20.379 32.0028C20.0948 32.0759 19.8052 31.9048 19.7322 31.6206C19.5921 31.076 19.5712 30.2299 19.5886 29.4511C19.6064 28.6516 19.6672 27.8488 19.7182 27.3503C19.748 27.0584 20.0089 26.846 20.3007 26.8758Z" fill="#FF5151"/>
</svg>
