<svg width="39" height="40" viewBox="0 0 39 40" fill="none" xmlns="http://www.w3.org/2000/svg">
<path d="M34.1221 19.3166C34.1275 21.423 33.6368 23.5009 32.6897 25.381C31.5668 27.6341 29.8405 29.5291 27.7042 30.8539C25.5679 32.1787 23.106 32.8809 20.5942 32.8819C18.4936 32.8873 16.4215 32.3952 14.5465 31.4455L5.47485 34.4778L8.49873 25.381C7.55167 23.5009 7.06089 21.423 7.06637 19.3166C7.06734 16.7978 7.7676 14.3291 9.08873 12.1869C10.4099 10.0447 12.2997 8.31362 14.5465 7.18759C16.4215 6.23791 18.4936 5.74577 20.5942 5.75127H21.39C24.7072 5.93478 27.8404 7.33882 30.1897 9.69455C32.5389 12.0503 33.9391 15.1922 34.1221 18.5186V19.3166Z" stroke="black" stroke-width="3.19078" stroke-linecap="round" stroke-linejoin="round"/>
</svg>
