<svg width="375" height="375" viewBox="0 0 375 375" fill="none" xmlns="http://www.w3.org/2000/svg">
<rect width="375" height="375" fill="#D5D5D5"/>
<g opacity="0.1">
<path fill-rule="evenodd" clip-rule="evenodd" d="M134.333 126.667C130.099 126.667 126.667 130.099 126.667 134.333V241.667C126.667 245.901 130.099 249.334 134.333 249.334H241.667C245.901 249.334 249.333 245.901 249.333 241.667V134.333C249.333 130.099 245.901 126.667 241.667 126.667H134.333ZM111.333 134.333C111.333 121.631 121.631 111.333 134.333 111.333H241.667C254.369 111.333 264.667 121.631 264.667 134.333V241.667C264.667 254.369 254.369 264.667 241.667 264.667H134.333C121.631 264.667 111.333 254.369 111.333 241.667V134.333Z" fill="#181F22"/>
<path fill-rule="evenodd" clip-rule="evenodd" d="M161.167 157.333C159.05 157.333 157.333 159.05 157.333 161.167C157.333 163.284 159.05 165 161.167 165C163.284 165 165 163.284 165 161.167C165 159.05 163.284 157.333 161.167 157.333ZM142 161.167C142 150.581 150.581 142 161.167 142C171.752 142 180.333 150.581 180.333 161.167C180.333 171.752 171.752 180.333 161.167 180.333C150.581 180.333 142 171.752 142 161.167Z" fill="#181F22"/>
<path fill-rule="evenodd" clip-rule="evenodd" d="M213.246 167.246C216.24 164.251 221.094 164.251 224.088 167.246L262.421 205.579C265.415 208.573 265.415 213.427 262.421 216.421C259.427 219.415 254.573 219.415 251.579 216.421L218.667 183.509L139.755 262.421C136.761 265.415 131.906 265.415 128.912 262.421C125.918 259.427 125.918 254.573 128.912 251.579L213.246 167.246Z" fill="#181F22"/>
</g>
</svg>
